<?xml version="1.0" encoding="utf-8"?>
<!-- Generator: Adobe Illustrator 25.2.3, SVG Export Plug-In . SVG Version: 6.00 Build 0)  -->
<svg version="1.1" id="Capa_1" xmlns="http://www.w3.org/2000/svg" xmlns:xlink="http://www.w3.org/1999/xlink" x="0px" y="0px"
	 viewBox="0 0 460 460" style="enable-background:new 0 0 460 460;" xml:space="preserve">
<style type="text/css">
	.st0{fill:#E65125;}
</style>
<path class="st0" d="M459.2,109.6l-30.3-68.8c-1.5-3.4-4.8-5.7-8.5-6c-3.7-0.2-7.3,1.6-9.2,4.8c-64.9,106.7-155.1,197.8-261.1,263.7
	l-7.3-7.3c-3.9-3.9-10.2-3.9-14.1,0c-3.9,3.9-3.9,10.2,0,14.1l3.8,3.8C92.3,337.5,50,357.6,6.5,373.7c-3.2,1.2-5.6,3.9-6.3,7.2
	c-0.7,3.3,0.3,6.8,2.7,9.2l32.1,32.1c1.9,1.9,4.5,2.9,7.1,2.9c1.2,0,2.3-0.2,3.5-0.6c12.4-4.6,24.8-9.5,37-14.7
	c0.1,0,0.2-0.1,0.3-0.1c11.9-5.1,23.7-10.5,35.4-16.2c0.2-0.1,0.5-0.2,0.7-0.3c11.3-5.5,22.6-11.3,33.6-17.3
	c0.1-0.1,0.3-0.1,0.4-0.2c8.8-4.8,17.5-9.8,26.1-14.9l7.3,7.3c2,2,4.5,2.9,7.1,2.9s5.1-1,7.1-2.9c3.9-3.9,3.9-10.2,0-14.1l-3.4-3.4
	c49-27.5,95.4-60.1,137.8-97.1c45.8-39.9,87.2-84.9,123-133.8C460.2,116.7,460.6,112.9,459.2,109.6z M164.6,346.1
	c-4.9,2.9-9.8,5.7-14.7,8.4l-1.1-1.1c-3.9-3.9-10.2-3.9-14.1,0c-2.9,2.9-3.6,7-2.3,10.6c-5.3,2.8-10.7,5.6-16.1,8.2l-1.4-1.4
	c-3.9-3.9-10.2-3.9-14.1,0c-2.7,2.7-3.5,6.6-2.5,10c-5.7,2.6-11.3,5.2-17.1,7.7l-17-17c28.4-12.8,56.1-27.1,82.9-43.1L164.6,346.1z
	 M44.6,403.5L28,386.9c5.5-2.2,11-4.4,16.5-6.7L61.2,397C55.7,399.3,50.2,401.4,44.6,403.5z M182.5,335.8L171.7,325l-7.1-7.1
	c101.6-64,188.8-150.5,253.6-251.7l20.3,46.2C370.5,203.8,282.2,280.8,182.5,335.8z"/>
</svg>
